<?xml version="1.0" encoding="UTF-8"?><svg version="1.1" viewBox="0 0 24 24" xmlns="http://www.w3.org/2000/svg" xmlns:xlink="http://www.w3.org/1999/xlink"><!--Generated by IJSVG (https://github.com/iconjar/IJSVG)--><g stroke-width="1" stroke="#FFF" fill="none" stroke-linejoin="round"><path d="M21.7426,13.2574c2.34315,2.34315 2.34315,6.14214 0,8.48528c-2.34315,2.34315 -6.14214,2.34315 -8.48528,0c-2.34315,-2.34315 -2.34315,-6.14214 -1.77636e-15,-8.48528c2.34315,-2.34315 6.14214,-2.34315 8.48528,-1.77636e-15"></path><path stroke-linecap="round" d="M15,17.5h5"></path><path stroke-linecap="round" d="M17.5,20v-5"></path><path stroke-linecap="round" d="M11.861,11.091l-0.861,-2.091l-3,5.5l-2,-2l-2.5,5h5.459"></path><path stroke-linecap="round" d="M6.06066,5.93934c0.585786,0.585786 0.585786,1.53553 0,2.12132c-0.585786,0.585786 -1.53553,0.585786 -2.12132,0c-0.585786,-0.585786 -0.585786,-1.53553 -4.44089e-16,-2.12132c0.585786,-0.585786 1.53553,-0.585786 2.12132,0"></path><path stroke-linecap="round" d="M10.5,21.5h-10v-21h11l5,5v4"></path><path stroke-linecap="round" d="M11.5,0.5v5h5"></path></g><path fill="none" d="M0,0h24v24h-24Z"></path></svg>